<svg xmlns="http://www.w3.org/2000/svg" viewBox="0 0 64 64">
  <defs>
    <linearGradient id="a" x1="54.3" y1="17.71" x2="24.09" y2="48.99" gradientUnits="userSpaceOnUse">
      <stop offset="0" stop-color="#86c3db"/>
      <stop offset="0.45" stop-color="#86c3db"/>
      <stop offset="1" stop-color="#5eafcf"/>
    </linearGradient>
  </defs>
  <path d="M25.31,41.11c-5.52-5.52-8.23-12.24-8.23-18.41A31.34,31.34,0,0,1,19.7,12.82c.44-1.31,1.34-2.14,2.55-2.14a2.74,2.74,0,0,1,1.32.36c.92.5,1.32,1.51,1.16,2.93a25.76,25.76,0,0,0,12.69,23.11,25.68,25.68,0,0,0,14.55,2.17c1.6-.23,2.89.26,3.47,1.31a2.48,2.48,0,0,1-.11,2.79c-.46.75-1.16,1.25-2.07,1.49A31.12,31.12,0,0,1,34.87,47.34C31.27,47.34,28.2,45.16,25.31,41.11Z" stroke="#72b9d5" stroke-linecap="round" stroke-linejoin="round" stroke-width="0.5" fill="url(#a)"/>
</svg>
