<svg xmlns="http://www.w3.org/2000/svg" viewBox="0 0 64 64">
  <defs>
    <linearGradient id="a" x1="26.75" y1="22.91" x2="37.25" y2="41.09" gradientUnits="userSpaceOnUse">
      <stop offset="0" stop-color="#fbbf24"/>
      <stop offset="0.45" stop-color="#fbbf24"/>
      <stop offset="1" stop-color="#f59e0b"/>
    </linearGradient>
  </defs>
  <circle cx="32" cy="32" r="10.5" stroke="#f8af18" stroke-miterlimit="10" stroke-width="0.5" fill="url(#a)"/>
  <path d="m15.71 21.29a1 1 0 0 0 1.41 1.41l1.06-1.06a1 1 0 0 0 -1.41-1.41zm33.17 0-1.06 1.06a1 1 0 0 0 1.41 1.41l1.06-1.06a1 1 0 0 0 -1.41-1.41zm-16.88-5.29v1.5a1 1 0 0 0 2 0v-1.5a1 1 0 0 0 -2 0zm0 32v1.5a1 1 0 0 0 2 0v-1.5a1 1 0 0 0 -2 0zm-16 -16h1.5a1 1 0 0 0 0-2h-1.5a1 1 0 0 0 0 2zm32 0h1.5a1 1 0 0 0 0-2h-1.5a1 1 0 0 0 0 2zm-21.29 10.29 1.06 1.06a1 1 0 0 0 1.41-1.41l-1.06-1.06a1 1 0 0 0 -1.41 1.41zm16.17 0a1 1 0 0 0 1.41-1.41l-1.06-1.06a1 1 0 0 0 -1.41 1.41z" stroke="#f8af18" stroke-miterlimit="10" stroke-width="0.5" fill="#fbbf24"/>
</svg>
