<?xml version="1.0" encoding="UTF-8" standalone="no"?>
<!-- Created with Inkscape (http://www.inkscape.org/) -->

<svg
   width="6mm"
   height="11mm"
   viewBox="0 0 6 11"
   version="1.1"
   id="svg6522"
   inkscape:version="1.2.2 (732a01da63, 2022-12-09)"
   sodipodi:docname="knob.svg"
   xmlns:inkscape="http://www.inkscape.org/namespaces/inkscape"
   xmlns:sodipodi="http://sodipodi.sourceforge.net/DTD/sodipodi-0.dtd"
   xmlns:xlink="http://www.w3.org/1999/xlink"
   xmlns="http://www.w3.org/2000/svg"
   xmlns:svg="http://www.w3.org/2000/svg">
  <sodipodi:namedview
     id="namedview6524"
     pagecolor="#ffffff"
     bordercolor="#cccccc"
     borderopacity="1"
     inkscape:showpageshadow="0"
     inkscape:pageopacity="0"
     inkscape:pagecheckerboard="0"
     inkscape:deskcolor="#d1d1d1"
     inkscape:document-units="mm"
     showgrid="false"
     inkscape:zoom="3.1251122"
     inkscape:cx="-25.599081"
     inkscape:cy="30.718897"
     inkscape:window-width="1920"
     inkscape:window-height="1057"
     inkscape:window-x="-8"
     inkscape:window-y="-8"
     inkscape:window-maximized="1"
     inkscape:current-layer="layer1" />
  <defs
     id="defs6519">
    <clipPath
       clipPathUnits="userSpaceOnUse"
       id="clipPath1370">
      <path
         d="m 377.663,484.991 c 0,-15.107 12.246,-27.354 27.353,-27.354 v 0 c 15.108,0 27.356,12.247 27.356,27.354 v 0 c 0,15.108 -12.248,27.355 -27.356,27.355 v 0 c -15.107,0 -27.353,-12.247 -27.353,-27.355"
         id="path1368" />
    </clipPath>
    <radialGradient
       inkscape:collect="always"
       xlink:href="#radialGradient1382"
       id="radialGradient3779"
       gradientUnits="userSpaceOnUse"
       gradientTransform="matrix(87.990819,0,0,-81.039494,1680.4775,-376.36166)"
       cx="0"
       cy="0"
       fx="0"
       fy="0"
       r="1"
       spreadMethod="pad" />
    <radialGradient
       fx="0"
       fy="0"
       cx="0"
       cy="0"
       r="1"
       gradientUnits="userSpaceOnUse"
       gradientTransform="matrix(87.990819,0,0,-81.039494,864.02539,554.89719)"
       spreadMethod="pad"
       id="radialGradient1382">
      <stop
         style="stop-opacity:1;stop-color:#a7a5a6"
         offset="0"
         id="stop1376" />
      <stop
         style="stop-opacity:1;stop-color:#a7a5a6"
         offset="0.07662191"
         id="stop1378" />
      <stop
         style="stop-opacity:1;stop-color:#000000"
         offset="1"
         id="stop1380" />
    </radialGradient>
    <clipPath
       clipPathUnits="userSpaceOnUse"
       id="clipPath1416">
      <path
         d="M 0,792 H 612 V 0 H 0 Z"
         id="path1414" />
    </clipPath>
  </defs>
  <g
     inkscape:label="Layer 1"
     inkscape:groupmode="layer"
     id="layer1">
    <g
       id="g3761"
       transform="matrix(0.10967117,0,0,-0.11907843,-41.418743,63.489335)"
       inkscape:export-filename="Panel Knobs\knob.png"
       inkscape:export-xdpi="96"
       inkscape:export-ydpi="96">
      <g
         id="g3747">
        <g
           id="g3745"
           clip-path="url(#clipPath1370)">
          <g
             id="g3743">
            <g
               id="g3741">
              <path
                 d="m 377.663,484.991 c 0,-15.107 12.246,-27.354 27.353,-27.354 v 0 c 15.108,0 27.356,12.247 27.356,27.354 v 0 c 0,15.108 -12.248,27.355 -27.356,27.355 v 0 c -15.107,0 -27.353,-12.247 -27.353,-27.355"
                 style="fill:url(#radialGradient3779);stroke:none"
                 id="path3739" />
            </g>
          </g>
        </g>
      </g>
      <g
         id="g3759">
        <g
           id="g3757"
           clip-path="url(#clipPath1416)">
          <g
             id="g3751"
             transform="translate(387.2471,443.416)">
            <path
               d="m 0,0 14.919,86.649 c 0,0 0.288,2.172 0.638,2.549 0.845,0.911 4.866,0.638 5.184,-0.318 0.319,-0.956 14.919,-89.518 14.919,-89.518 0,0 0.001,-1.752 -0.955,-1.911 -0.956,-0.159 -34.067,0 -34.067,0 0,0 -1.117,0.32 -0.638,2.549"
               style="fill:#000000;fill-opacity:1;fill-rule:nonzero;stroke:none"
               id="path3749" />
          </g>
          <g
             id="g3755"
             transform="translate(406.4775,530.8213)">
            <path
               d="m 0,0 v -26.773 c 0,-0.647 -0.56,-1.171 -1.251,-1.171 -0.69,0 -1.25,0.524 -1.25,1.171 V 0"
               style="fill:#ffffff;fill-opacity:1;fill-rule:nonzero;stroke:none"
               id="path3753" />
          </g>
        </g>
      </g>
    </g>
  </g>
</svg>
